<svg width="128" height="129" viewBox="0 0 128 129" fill="none" xmlns="http://www.w3.org/2000/svg">
<path d="M88.4838 4.88725C88.4885 4.96304 88.4909 5.03959 88.4909 5.11679V71.4886C88.4909 73.5376 86.8698 75.633 84.8701 76.1688C84.8159 76.1833 84.7618 76.1966 84.7076 76.2086L36.3774 86.9345C34.4951 87.3522 32.9923 86.2036 32.9216 84.2933L30.6907 23.9814C30.617 21.9896 32.1223 19.8814 34.0831 19.2305C55.7933 12.0227 71.8276 6.6974 84.6442 2.44465C86.64 1.78206 88.3591 2.87565 88.4838 4.88725Z" fill="#FF4785"/>
<path d="M91.3008 6.29195C91.3055 6.36774 91.3078 6.44429 91.3078 6.52149V72.8933C91.3078 74.9423 89.6867 77.0377 87.687 77.5735C87.6329 77.588 87.5787 77.6013 87.5246 77.6133L39.1943 88.3392C37.3121 88.7569 35.8092 87.6083 35.7386 85.698L33.5076 25.3861C33.434 23.3943 34.9393 21.2861 36.9 20.6352C58.6103 13.4274 74.6446 8.1021 87.4612 3.84935C89.457 3.18676 91.176 4.28035 91.3008 6.29195Z" fill="white"/>
<g clip-path="url(#clip0_1_27)">
<path d="M98.9509 44.1364C98.9564 44.229 98.9592 44.321 98.9592 44.4123V122.852C98.9592 125.273 97.0502 126.698 94.6954 126.034C94.6316 126.016 94.5679 125.996 94.5041 125.975L37.5918 107.296C35.3753 106.568 33.6056 104.236 33.5224 101.932L30.8953 29.2074C30.8085 26.8056 32.5811 25.2908 34.8901 25.7935L81.5603 35.956L81.1545 45.7254C81.1499 45.8381 81.1744 45.9575 81.2246 46.0719L81.2833 46.1842C81.4956 46.5319 81.8945 46.7007 82.1744 46.5613L85.9076 44.702L89.0608 48.1457C89.1789 48.2747 89.3263 48.3658 89.4766 48.4028C89.8276 48.4892 90.1023 48.2638 90.09 47.8993L89.7371 37.7361L94.4295 38.7587C96.7797 39.2704 98.804 41.6782 98.9509 44.1364Z" fill="#FF4785"/>
<mask id="mask0_1_27" style="mask-type:luminance" maskUnits="userSpaceOnUse" x="30" y="25" width="69" height="102">
<path d="M33.5224 101.932L30.8953 29.2074C30.8085 26.8056 32.5811 25.2908 34.8901 25.7935L94.4295 38.7587C96.7797 39.2704 98.804 41.6782 98.9509 44.1364C98.9564 44.229 98.9592 44.321 98.9592 44.4123V122.852C98.9592 125.273 97.0502 126.698 94.6954 126.034C94.6316 126.016 94.5679 125.996 94.5041 125.975L37.5918 107.296C35.3753 106.568 33.6056 104.236 33.5224 101.932Z" fill="white"/>
</mask>
<g mask="url(#mask0_1_27)">
<path d="M70.6975 64.9271C70.6975 66.6329 81.8713 68.9667 83.3712 68.1915C83.3712 56.5748 77.3099 48.761 66.2105 45.6307C55.1112 42.5003 48.8924 46.9458 48.8924 56.2448C48.8924 72.4405 70.1465 78.7448 70.1465 87.5788C70.1465 90.0585 68.9657 91.1979 66.368 90.4652C62.9831 89.5106 61.6448 87.3554 61.8023 81.3555C61.8023 80.0443 48.8924 75.9945 48.4988 77.6035C47.4966 91.9685 56.3707 98.6962 66.5254 101.56C76.3653 104.335 84.0797 101.117 84.0797 91.3534C84.0797 73.9953 62.5108 68.3771 62.5108 59.7756C62.5108 56.2885 65.0298 56.5339 66.5254 56.9558C68.0998 57.3998 70.9337 58.4844 70.6975 64.9271Z" fill="white"/>
</g>
<mask id="mask1_1_27" style="mask-type:luminance" maskUnits="userSpaceOnUse" x="30" y="25" width="69" height="102">
<path d="M33.5224 101.932L30.8953 29.2074C30.8085 26.8056 32.5811 25.2908 34.8901 25.7935L94.4295 38.7587C96.7797 39.2704 98.804 41.6782 98.9509 44.1364C98.9564 44.229 98.9592 44.321 98.9592 44.4123V122.852C98.9592 125.273 97.0502 126.698 94.6954 126.034C94.6316 126.016 94.5679 125.996 94.5041 125.975L37.5918 107.296C35.3753 106.568 33.6056 104.236 33.5224 101.932Z" fill="white"/>
</mask>
<g mask="url(#mask1_1_27)">
<path d="M81.1545 45.7254L81.5612 35.9529L89.7378 37.7338L90.09 47.8993C90.1023 48.2638 89.8276 48.4892 89.4766 48.4028C89.3263 48.3658 89.1789 48.2747 89.0608 48.1457L85.9076 44.702L82.1744 46.5613C81.8945 46.7007 81.4956 46.5319 81.2833 46.1842C81.1939 46.0378 81.1484 45.8756 81.1545 45.7254Z" fill="white"/>
</g>
</g>
<defs>
<clipPath id="clip0_1_27">
<rect width="73.1429" height="90.022" fill="white" transform="matrix(0.962455 0.27144 0 1 29.5385 19.0422)"/>
</clipPath>
</defs>
</svg>
