<svg width="16" height="17" viewBox="0 0 16 17" fill="none" xmlns="http://www.w3.org/2000/svg">
<path fill-rule="evenodd" clip-rule="evenodd" d="M6.87286 3.18782L10.0954 2.11795V4.59487L11.0614 4.8052V1.28909C11.0614 1.27944 11.0611 1.26987 11.0605 1.2604C11.0449 1.00894 10.83 0.872246 10.5805 0.95507C9.52774 1.3044 8.30126 1.71163 6.8139 2.20548L6.81319 2.20572L4.26039 3.0533C4.01529 3.13467 3.82713 3.39819 3.83634 3.64717L4.1152 11.1861C4.11666 11.2256 4.12302 11.2625 4.13368 11.2964L3.86191 3.77294C3.85107 3.47272 4.07264 3.28336 4.36126 3.34621L5.58997 3.61377L6.87286 3.18782Z" fill="white"/>
<path fill-rule="evenodd" clip-rule="evenodd" d="M12.3695 5.65221C12.3693 5.64784 12.3691 5.64345 12.3689 5.63906C12.3505 5.33178 12.0975 5.03082 11.8037 4.96684L11.2171 4.83902L11.2612 6.10942C11.2628 6.15498 11.2285 6.18316 11.1846 6.17236C11.1658 6.16774 11.1474 6.15635 11.1326 6.14022L10.7385 5.70976L10.2718 5.94217C10.2368 5.9596 10.1869 5.93849 10.1604 5.89503L10.1531 5.88099C10.1468 5.86669 10.1437 5.85177 10.1443 5.83769L10.195 4.61651L4.36126 3.3462C4.07264 3.28335 3.85106 3.47271 3.86191 3.77294L4.19029 12.8636C4.2007 13.1515 4.42191 13.4431 4.69897 13.534L11.813 15.8689C11.821 15.8716 11.829 15.874 11.8369 15.8762C12.1313 15.9592 12.3699 15.7812 12.3699 15.4785V5.67354C12.3699 5.66647 12.3698 5.65935 12.3695 5.65221ZM10.4214 8.64594C10.2339 8.74284 8.83719 8.45113 8.83719 8.23789C8.86671 7.43256 8.51247 7.29698 8.31568 7.24148C8.12872 7.18875 7.81384 7.15807 7.81384 7.59396C7.81384 8.03815 8.274 8.41869 8.8141 8.86535C9.58136 9.49986 10.51 10.2678 10.51 11.5412C10.51 12.7617 9.54566 13.1639 8.31568 12.817C7.04634 12.459 5.93707 11.6181 6.06235 9.82245C6.11155 9.62132 7.72528 10.1275 7.72528 10.2914C7.7056 11.0414 7.87288 11.3108 8.296 11.4302C8.62071 11.5217 8.76831 11.3793 8.76831 11.0694C8.76831 10.6003 8.28887 10.1882 7.73732 9.71424C6.99053 9.07245 6.11155 8.31706 6.11155 7.15261C6.11155 5.99023 6.8889 5.43455 8.27632 5.82584C9.66373 6.21714 10.4214 7.19386 10.4214 8.64594Z" fill="white"/>
</svg>
