<svg width="17" height="16" viewBox="0 0 17 16" fill="none" xmlns="http://www.w3.org/2000/svg">
<path fill-rule="evenodd" clip-rule="evenodd" d="M7.00473 2.68782L10.2273 1.61795V4.09487L11.1932 4.3052V0.789087C11.1932 0.779437 11.1929 0.769869 11.1923 0.760395C11.1768 0.508945 10.9619 0.372246 10.7124 0.45507C9.65961 0.804402 8.43313 1.21163 6.94577 1.70548L6.94506 1.70572L4.39225 2.5533C4.14716 2.63467 3.95899 2.89819 3.9682 3.14717L4.24707 10.6861C4.24853 10.7256 4.25489 10.7625 4.26555 10.7964L3.99378 3.27294C3.98293 2.97272 4.20451 2.78336 4.49313 2.84621L5.72183 3.11377L7.00473 2.68782Z" fill="black"/>
<path fill-rule="evenodd" clip-rule="evenodd" d="M12.5018 5.17354C12.5018 5.16214 12.5014 5.15064 12.5007 5.13906C12.4824 4.83178 12.2293 4.53082 11.9355 4.46684L11.349 4.33902L11.3931 5.60942C11.3946 5.65498 11.3603 5.68316 11.3164 5.67236C11.2976 5.66773 11.2792 5.65635 11.2645 5.64022L10.8703 5.20976L10.4037 5.44217C10.3687 5.4596 10.3188 5.43849 10.2923 5.39503L10.2849 5.38099C10.2787 5.36669 10.2756 5.35177 10.2762 5.33769L10.3269 4.11651L4.49312 2.8462C4.20451 2.78335 3.98293 2.97271 3.99377 3.27294L4.32216 12.3636C4.33256 12.6515 4.55377 12.9431 4.83084 13.034L11.9449 15.3689C11.9528 15.3716 11.9608 15.374 11.9688 15.3762C12.2631 15.4592 12.5018 15.2812 12.5018 14.9785V5.17354ZM10.5533 8.14594C10.3658 8.24284 8.96905 7.95113 8.96905 7.73789C8.99857 6.93256 8.64434 6.79698 8.44754 6.74148C8.26058 6.68875 7.94571 6.65807 7.94571 7.09396C7.94571 7.53815 8.40586 7.91869 8.94597 8.36535C9.71323 8.99986 10.6418 9.7678 10.6418 11.0412C10.6418 12.2617 9.67752 12.6639 8.44754 12.317C7.1782 11.959 6.06893 11.1181 6.19421 9.32245C6.24341 9.12132 7.85715 9.62754 7.85715 9.79145C7.83747 10.5414 8.00475 10.8108 8.42786 10.9302C8.75258 11.0217 8.90017 10.8793 8.90017 10.5694C8.90017 10.1003 8.42073 9.68823 7.86919 9.21424C7.12239 8.57245 6.24341 7.81706 6.24341 6.65261C6.24341 5.49023 7.02076 4.93455 8.40818 5.32584C9.7956 5.71714 10.5533 6.69386 10.5533 8.14594Z" fill="black"/>
</svg>
